<svg width="72" height="81" viewBox="0 0 72 81" fill="none" xmlns="http://www.w3.org/2000/svg">
<path d="M3.42936 0H0V66.1701H3.42936V0Z" transform="translate(6.55453 61.6582) rotate(-149.999)" fill="#E535AB"/>
<path d="M66.1701 0H0V3.42935H66.1701V0Z" transform="translate(2.90463 55.3655)" fill="#E535AB"/>
<path d="M38.2187 0H0V3.42935H38.2187V0Z" transform="translate(37.3114 76.4014) rotate(-149.999)" fill="#E535AB"/>
<path d="M38.2187 0H0V3.42936H38.2187V0Z" transform="translate(66.0631 26.5974) rotate(-149.999)" fill="#E535AB"/>
<path d="M3.42936 0H0V38.2187H3.42936V0Z" transform="translate(5.93784 26.5842) rotate(-120.001)" fill="#E535AB"/>
<path d="M66.1701 0H0V3.42936H66.1701V0Z" transform="translate(65.4529 61.6587) rotate(-120.001)" fill="#E535AB"/>
<path d="M3.42936 0H0V38.2187H3.42936V0Z" transform="translate(5.52829 21.3406)" fill="#E535AB"/>
<path d="M3.42936 0H0V38.2187H3.42936V0Z" transform="translate(63.0423 21.3406)" fill="#E535AB"/>
<path d="M2.99552 0H0V33.24H2.99552V0Z" transform="translate(36.7276 74.95) rotate(-120.001)" fill="#E535AB"/>
<path d="M13.4613 10.8169C11.478 14.267 7.05705 15.4445 3.60703 13.4613C0.157019 11.478 -1.02053 7.05705 0.962714 3.60704C2.94596 0.157021 7.36694 -1.02053 10.817 0.962713C14.2876 2.96661 15.4652 7.36693 13.4613 10.8169Z" transform="translate(57.5554 49.8579)" fill="#E535AB"/>
<path d="M13.4613 10.8169C11.478 14.267 7.05705 15.4445 3.60704 13.4613C0.157021 11.478 -1.02053 7.05705 0.962713 3.60704C2.94596 0.15702 7.36693 -1.02053 10.8169 0.962713C14.267 2.96661 15.4445 7.36693 13.4613 10.8169Z" transform="translate(0 16.6179)" fill="#E535AB"/>
<path d="M0.962713 10.8169C-1.02053 7.36693 0.15702 2.96661 3.60704 0.962713C7.05705 -1.02053 11.4574 0.157021 13.4613 3.60704C15.4445 7.05705 14.267 11.4574 10.8169 13.4613C7.34628 15.4445 2.94596 14.267 0.962713 10.8169Z" transform="translate(0.0206604 49.8579)" fill="#E535AB"/>
<path d="M0.962714 10.8169C-1.02053 7.36693 0.157019 2.96661 3.60703 0.962713C7.05705 -1.02053 11.4574 0.15702 13.4613 3.60704C15.4445 7.05705 14.267 11.4574 10.8169 13.4613C7.36693 15.4445 2.94596 14.267 0.962714 10.8169Z" transform="translate(57.576 16.6179)" fill="#E535AB"/>
<path d="M7.20991 14.4198C3.22277 14.4198 0 11.1971 0 7.20991C0 3.22277 3.22277 0 7.20991 0C11.1971 0 14.4198 3.22277 14.4198 7.20991C14.4198 11.1764 11.1971 14.4198 7.20991 14.4198Z" transform="translate(28.7901 66.48)" fill="#E535AB"/>
<path d="M7.20991 14.4198C3.22277 14.4198 0 11.1971 0 7.20991C0 3.22277 3.22277 0 7.20991 0C11.1971 0 14.4198 3.22277 14.4198 7.20991C14.4198 11.1971 11.1971 14.4198 7.20991 14.4198Z" transform="translate(28.7901)" fill="#E535AB"/>
</svg>
