<svg width="433" height="391" viewBox="0 0 433 391" fill="none" xmlns="http://www.w3.org/2000/svg">
<path d="M217.026 35.9C216.066 34.64 215.026 33.76 213.906 33.26C212.806 32.76 211.566 32.51 210.186 32.51C207.506 32.51 205.426 33.48 203.946 35.42C202.486 37.34 201.756 40.15 201.756 43.85C201.756 45.79 201.916 47.45 202.236 48.83C202.576 50.19 203.056 51.31 203.676 52.19C204.316 53.05 205.096 53.69 206.016 54.11C206.936 54.51 207.976 54.71 209.136 54.71C210.836 54.71 212.306 54.33 213.546 53.57C214.786 52.81 215.946 51.74 217.026 50.36V35.9ZM222.906 14.72V59H219.366C218.546 59 218.036 58.61 217.836 57.83L217.326 54.32C216.026 55.86 214.546 57.1 212.886 58.04C211.246 58.96 209.346 59.42 207.186 59.42C205.446 59.42 203.866 59.08 202.446 58.4C201.046 57.72 199.846 56.73 198.846 55.43C197.846 54.11 197.076 52.48 196.536 50.54C195.996 48.6 195.726 46.37 195.726 43.85C195.726 41.59 196.026 39.49 196.626 37.55C197.226 35.61 198.096 33.93 199.236 32.51C200.376 31.09 201.756 29.98 203.376 29.18C204.996 28.36 206.826 27.95 208.866 27.95C210.706 27.95 212.266 28.25 213.546 28.85C214.846 29.45 216.006 30.3 217.026 31.4V14.72H222.906ZM284.292 20.84C284.232 20.96 284.132 21.02 283.992 21.02C283.872 21.02 283.722 20.93 283.542 20.75C283.382 20.55 283.172 20.31 282.912 20.03C282.652 19.73 282.322 19.41 281.922 19.07C281.542 18.73 281.062 18.42 280.482 18.14C279.922 17.84 279.252 17.6 278.472 17.42C277.692 17.22 276.792 17.12 275.772 17.12C274.052 17.12 272.512 17.41 271.152 17.99C269.792 18.57 268.632 19.36 267.672 20.36C266.732 21.34 266.002 22.49 265.482 23.81C264.982 25.13 264.732 26.52 264.732 27.98C264.732 29.36 264.982 30.52 265.482 31.46C266.002 32.38 266.682 33.17 267.522 33.83C268.362 34.47 269.312 35.02 270.372 35.48C271.432 35.94 272.522 36.39 273.642 36.83C274.762 37.25 275.852 37.7 276.912 38.18C277.972 38.64 278.922 39.21 279.762 39.89C280.602 40.55 281.272 41.37 281.772 42.35C282.292 43.31 282.552 44.5 282.552 45.92C282.552 47.76 282.232 49.5 281.592 51.14C280.972 52.78 280.072 54.22 278.892 55.46C277.732 56.68 276.312 57.66 274.632 58.4C272.972 59.12 271.112 59.48 269.052 59.48C267.752 59.48 266.602 59.35 265.602 59.09C264.602 58.85 263.702 58.5 262.902 58.04C262.102 57.56 261.372 56.99 260.712 56.33C260.072 55.65 259.472 54.88 258.912 54.02L259.092 53.9C259.152 53.84 259.202 53.8 259.242 53.78C259.282 53.74 259.352 53.72 259.452 53.72C259.572 53.72 259.722 53.85 259.902 54.11C260.082 54.35 260.322 54.67 260.622 55.07C260.942 55.45 261.332 55.86 261.792 56.3C262.272 56.74 262.852 57.16 263.532 57.56C264.212 57.94 265.002 58.26 265.902 58.52C266.822 58.76 267.892 58.88 269.112 58.88C271.052 58.88 272.812 58.54 274.392 57.86C275.972 57.16 277.312 56.23 278.412 55.07C279.532 53.89 280.392 52.52 280.992 50.96C281.592 49.38 281.892 47.7 281.892 45.92C281.892 44.56 281.632 43.42 281.112 42.5C280.612 41.58 279.942 40.8 279.102 40.16C278.262 39.52 277.312 38.98 276.252 38.54C275.192 38.08 274.102 37.65 272.982 37.25C271.862 36.83 270.772 36.39 269.712 35.93C268.652 35.45 267.702 34.87 266.862 34.19C266.022 33.51 265.342 32.68 264.822 31.7C264.322 30.7 264.072 29.48 264.072 28.04C264.072 26.52 264.332 25.07 264.852 23.69C265.392 22.29 266.162 21.06 267.162 20C268.182 18.94 269.422 18.1 270.882 17.48C272.342 16.84 274.012 16.52 275.892 16.52C277.752 16.52 279.362 16.85 280.722 17.51C282.102 18.17 283.332 19.22 284.412 20.66L284.292 20.84ZM296.294 59L299.834 29.48H299.954C300.114 29.48 300.214 29.53 300.254 29.63C300.294 29.71 300.314 29.8 300.314 29.9L299.024 41.36C299.804 39.5 300.684 37.82 301.664 36.32C302.644 34.82 303.694 33.54 304.814 32.48C305.934 31.42 307.104 30.61 308.324 30.05C309.544 29.47 310.794 29.18 312.074 29.18C313.354 29.18 314.364 29.43 315.104 29.93C315.864 30.41 316.414 31.12 316.754 32.06C317.094 33 317.254 34.15 317.234 35.51C317.234 36.87 317.134 38.42 316.934 40.16C317.694 38.32 318.574 36.71 319.574 35.33C320.594 33.95 321.664 32.81 322.784 31.91C323.904 30.99 325.054 30.31 326.234 29.87C327.414 29.41 328.554 29.18 329.654 29.18C330.934 29.18 331.964 29.43 332.744 29.93C333.544 30.41 334.134 31.12 334.514 32.06C334.894 33 335.094 34.15 335.114 35.51C335.154 36.87 335.074 38.42 334.874 40.16L332.654 59H331.994L334.214 40.16C334.414 38.52 334.504 37.06 334.484 35.78C334.464 34.5 334.284 33.42 333.944 32.54C333.624 31.64 333.104 30.96 332.384 30.5C331.684 30.02 330.754 29.78 329.594 29.78C328.514 29.78 327.394 30.01 326.234 30.47C325.094 30.93 323.964 31.64 322.844 32.6C321.744 33.54 320.674 34.75 319.634 36.23C318.614 37.71 317.684 39.47 316.844 41.51L314.774 59H314.114L316.334 40.16C316.534 38.52 316.644 37.06 316.664 35.78C316.684 34.5 316.544 33.42 316.244 32.54C315.944 31.64 315.454 30.96 314.774 30.5C314.114 30.02 313.194 29.78 312.014 29.78C309.414 29.78 307.014 30.9 304.814 33.14C302.634 35.38 300.654 38.61 298.874 42.83L296.954 59H296.294ZM354.549 29.6L350.949 59H350.289L353.889 29.6H354.549ZM356.889 18.68C356.889 19.1 356.729 19.48 356.409 19.82C356.089 20.14 355.729 20.3 355.329 20.3C354.909 20.3 354.539 20.14 354.219 19.82C353.919 19.48 353.769 19.1 353.769 18.68C353.769 18.22 353.919 17.83 354.219 17.51C354.539 17.17 354.909 17 355.329 17C355.729 17 356.089 17.17 356.409 17.51C356.729 17.83 356.889 18.22 356.889 18.68ZM370.856 54.62C370.856 54.52 370.856 54.38 370.856 54.2C370.876 54 370.896 53.73 370.916 53.39C370.956 53.03 371.006 52.58 371.066 52.04C371.146 51.48 371.236 50.78 371.336 49.94L373.586 31.46H369.116C368.876 31.46 368.756 31.36 368.756 31.16L368.816 30.98L373.646 30.86L375.296 19.04C375.316 18.94 375.356 18.85 375.416 18.77C375.476 18.67 375.556 18.62 375.656 18.62H375.836L374.336 30.86H383.516L383.456 31.46H374.246L371.996 50C371.896 50.82 371.806 51.5 371.726 52.04C371.666 52.58 371.616 53.03 371.576 53.39C371.556 53.75 371.536 54.03 371.516 54.23C371.516 54.41 371.516 54.54 371.516 54.62C371.516 55.38 371.606 56.03 371.786 56.57C371.986 57.11 372.256 57.55 372.596 57.89C372.936 58.23 373.336 58.48 373.796 58.64C374.256 58.8 374.756 58.88 375.296 58.88C376.076 58.88 376.766 58.75 377.366 58.49C377.986 58.23 378.516 57.95 378.956 57.65C379.416 57.35 379.786 57.07 380.066 56.81C380.346 56.55 380.536 56.42 380.636 56.42C380.756 56.42 380.836 56.46 380.876 56.54L380.936 56.66C380.276 57.48 379.426 58.16 378.386 58.7C377.346 59.22 376.296 59.48 375.236 59.48C373.856 59.48 372.776 59.1 371.996 58.34C371.236 57.58 370.856 56.34 370.856 54.62ZM398.702 41.03C399.502 39.23 400.422 37.6 401.462 36.14C402.502 34.68 403.602 33.44 404.762 32.42C405.942 31.38 407.162 30.58 408.422 30.02C409.682 29.46 410.942 29.18 412.202 29.18C413.482 29.18 414.562 29.43 415.442 29.93C416.322 30.41 417.002 31.12 417.482 32.06C417.962 33 418.262 34.15 418.382 35.51C418.502 36.87 418.462 38.42 418.262 40.16L416.042 59H415.382L417.602 40.16C417.802 38.52 417.842 37.06 417.722 35.78C417.622 34.5 417.352 33.42 416.912 32.54C416.472 31.64 415.852 30.96 415.052 30.5C414.272 30.02 413.302 29.78 412.142 29.78C410.922 29.78 409.692 30.08 408.452 30.68C407.212 31.26 406.002 32.11 404.822 33.23C403.642 34.33 402.512 35.67 401.432 37.25C400.372 38.83 399.402 40.6 398.522 42.56L396.542 59H395.882L401.102 15.8H401.762L398.702 41.03Z" transform="translate(-0.00012207 155.623)" fill="white"/>
<g filter="url(#filter0_d)">
<rect width="50.7959" height="240" rx="25.398" transform="translate(227.694 59.4203) rotate(34.2079)" fill="#262739" fill-opacity="0.01"/>
</g>
<line x1="2" y1="-2" x2="127" y2="-2" transform="translate(285.694 254.624) rotate(124.3)" stroke="#979CFF" stroke-opacity="0.7" stroke-width="4" stroke-linecap="round"/>
<line x1="0.5" y1="-0.5" x2="357.5" y2="-0.5" transform="translate(301 47.6229) rotate(124.3)" stroke="#979CFF" stroke-opacity="0.8" stroke-linecap="round"/>
<line x1="2" y1="-2" x2="127" y2="-2" transform="translate(188 29.6228) rotate(124.3)" stroke="#979CFF" stroke-opacity="0.7" stroke-width="4" stroke-linecap="round"/>
<rect width="63.1572" height="275.244" rx="20" transform="translate(230.251 38.9565) rotate(34.2079)" fill="#020B16"/>
<path d="M42.9 37.46C42.9 40.68 42.38 43.61 41.34 46.25C40.32 48.89 38.87 51.16 36.99 53.06C35.11 54.94 32.86 56.4 30.24 57.44C27.62 58.48 24.71 59 21.51 59H5.31V15.92H21.51C24.71 15.92 27.62 16.44 30.24 17.48C32.86 18.52 35.11 19.99 36.99 21.89C38.87 23.77 40.32 26.04 41.34 28.7C42.38 31.34 42.9 34.26 42.9 37.46ZM36.36 37.46C36.36 34.9 36.01 32.61 35.31 30.59C34.61 28.55 33.61 26.83 32.31 25.43C31.03 24.01 29.47 22.93 27.63 22.19C25.81 21.45 23.77 21.08 21.51 21.08H11.73V53.84H21.51C23.77 53.84 25.81 53.47 27.63 52.73C29.47 51.99 31.03 50.92 32.31 49.52C33.61 48.1 34.61 46.38 35.31 44.36C36.01 42.34 36.36 40.04 36.36 37.46ZM69.5344 28.04C71.7744 28.04 73.7944 28.41 75.5944 29.15C77.4144 29.87 78.9544 30.92 80.2144 32.3C81.4944 33.66 82.4744 35.31 83.1544 37.25C83.8344 39.17 84.1744 41.33 84.1744 43.73C84.1744 46.13 83.8344 48.3 83.1544 50.24C82.4744 52.18 81.4944 53.83 80.2144 55.19C78.9544 56.55 77.4144 57.6 75.5944 58.34C73.7944 59.06 71.7744 59.42 69.5344 59.42C67.2744 59.42 65.2344 59.06 63.4144 58.34C61.6144 57.6 60.0744 56.55 58.7944 55.19C57.5144 53.83 56.5244 52.18 55.8244 50.24C55.1444 48.3 54.8044 46.13 54.8044 43.73C54.8044 41.33 55.1444 39.17 55.8244 37.25C56.5244 35.31 57.5144 33.66 58.7944 32.3C60.0744 30.92 61.6144 29.87 63.4144 29.15C65.2344 28.41 67.2744 28.04 69.5344 28.04ZM69.5344 54.86C72.4144 54.86 74.5644 53.89 75.9844 51.95C77.4044 50.01 78.1144 47.28 78.1144 43.76C78.1144 40.24 77.4044 37.51 75.9844 35.57C74.5644 33.61 72.4144 32.63 69.5344 32.63C66.6144 32.63 64.4344 33.61 62.9944 35.57C61.5744 37.51 60.8644 40.24 60.8644 43.76C60.8644 47.28 61.5744 50.01 62.9944 51.95C64.4344 53.89 66.6144 54.86 69.5344 54.86ZM103.395 32.75C104.055 32.05 104.745 31.41 105.465 30.83C106.185 30.25 106.945 29.76 107.745 29.36C108.565 28.94 109.435 28.62 110.355 28.4C111.295 28.16 112.295 28.04 113.355 28.04C115.035 28.04 116.505 28.32 117.765 28.88C119.045 29.44 120.115 30.23 120.975 31.25C121.835 32.25 122.485 33.46 122.925 34.88C123.365 36.3 123.585 37.87 123.585 39.59V59H117.705V39.59C117.705 37.41 117.205 35.72 116.205 34.52C115.205 33.3 113.675 32.69 111.615 32.69C110.115 32.69 108.705 33.05 107.385 33.77C106.085 34.47 104.875 35.43 103.755 36.65V59H97.9045V28.52H101.415C102.235 28.52 102.745 28.91 102.945 29.69L103.395 32.75ZM155.059 45.47C152.679 45.55 150.659 45.74 148.999 46.04C147.339 46.32 145.989 46.7 144.949 47.18C143.909 47.66 143.159 48.23 142.699 48.89C142.239 49.53 142.009 50.25 142.009 51.05C142.009 51.81 142.129 52.47 142.369 53.03C142.629 53.57 142.969 54.02 143.389 54.38C143.829 54.72 144.339 54.97 144.919 55.13C145.499 55.29 146.129 55.37 146.809 55.37C147.709 55.37 148.529 55.28 149.269 55.1C150.029 54.92 150.739 54.67 151.399 54.35C152.059 54.01 152.689 53.6 153.289 53.12C153.889 52.64 154.479 52.09 155.059 51.47V45.47ZM137.899 32.78C139.599 31.16 141.439 29.95 143.419 29.15C145.419 28.35 147.609 27.95 149.989 27.95C151.729 27.95 153.269 28.24 154.609 28.82C155.949 29.38 157.079 30.17 157.999 31.19C158.919 32.21 159.609 33.43 160.069 34.85C160.549 36.27 160.789 37.84 160.789 39.56V59H158.179C157.599 59 157.159 58.91 156.859 58.73C156.559 58.53 156.319 58.17 156.139 57.65L155.509 54.98C154.729 55.7 153.959 56.34 153.199 56.9C152.439 57.44 151.639 57.91 150.799 58.31C149.979 58.69 149.099 58.98 148.159 59.18C147.219 59.38 146.179 59.48 145.039 59.48C143.839 59.48 142.709 59.32 141.649 59C140.609 58.66 139.699 58.15 138.919 57.47C138.139 56.79 137.519 55.94 137.059 54.92C136.619 53.9 136.399 52.71 136.399 51.35C136.399 50.15 136.719 49 137.359 47.9C138.019 46.78 139.079 45.78 140.539 44.9C142.019 44.02 143.939 43.3 146.299 42.74C148.679 42.18 151.599 41.86 155.059 41.78V39.56C155.059 37.26 154.569 35.54 153.589 34.4C152.609 33.26 151.169 32.69 149.269 32.69C147.989 32.69 146.909 32.85 146.029 33.17C145.169 33.49 144.419 33.85 143.779 34.25C143.159 34.63 142.609 34.98 142.129 35.3C141.669 35.62 141.189 35.78 140.689 35.78C140.289 35.78 139.939 35.67 139.639 35.45C139.359 35.23 139.129 34.97 138.949 34.67L137.899 32.78ZM181.82 14.72V59H175.94V14.72H181.82ZM284.292 20.84C284.232 20.96 284.132 21.02 283.992 21.02C283.872 21.02 283.722 20.93 283.542 20.75C283.382 20.55 283.172 20.31 282.912 20.03C282.652 19.73 282.322 19.41 281.922 19.07C281.542 18.73 281.062 18.42 280.482 18.14C279.922 17.84 279.252 17.6 278.472 17.42C277.692 17.22 276.792 17.12 275.772 17.12C274.052 17.12 272.512 17.41 271.152 17.99C269.792 18.57 268.632 19.36 267.672 20.36C266.732 21.34 266.002 22.49 265.482 23.81C264.982 25.13 264.732 26.52 264.732 27.98C264.732 29.36 264.982 30.52 265.482 31.46C266.002 32.38 266.682 33.17 267.522 33.83C268.362 34.47 269.312 35.02 270.372 35.48C271.432 35.94 272.522 36.39 273.642 36.83C274.762 37.25 275.852 37.7 276.912 38.18C277.972 38.64 278.922 39.21 279.762 39.89C280.602 40.55 281.272 41.37 281.772 42.35C282.292 43.31 282.552 44.5 282.552 45.92C282.552 47.76 282.232 49.5 281.592 51.14C280.972 52.78 280.072 54.22 278.892 55.46C277.732 56.68 276.312 57.66 274.632 58.4C272.972 59.12 271.112 59.48 269.052 59.48C267.752 59.48 266.602 59.35 265.602 59.09C264.602 58.85 263.702 58.5 262.902 58.04C262.102 57.56 261.372 56.99 260.712 56.33C260.072 55.65 259.472 54.88 258.912 54.02L259.092 53.9C259.152 53.84 259.202 53.8 259.242 53.78C259.282 53.74 259.352 53.72 259.452 53.72C259.572 53.72 259.722 53.85 259.902 54.11C260.082 54.35 260.322 54.67 260.622 55.07C260.942 55.45 261.332 55.86 261.792 56.3C262.272 56.74 262.852 57.16 263.532 57.56C264.212 57.94 265.002 58.26 265.902 58.52C266.822 58.76 267.892 58.88 269.112 58.88C271.052 58.88 272.812 58.54 274.392 57.86C275.972 57.16 277.312 56.23 278.412 55.07C279.532 53.89 280.392 52.52 280.992 50.96C281.592 49.38 281.892 47.7 281.892 45.92C281.892 44.56 281.632 43.42 281.112 42.5C280.612 41.58 279.942 40.8 279.102 40.16C278.262 39.52 277.312 38.98 276.252 38.54C275.192 38.08 274.102 37.65 272.982 37.25C271.862 36.83 270.772 36.39 269.712 35.93C268.652 35.45 267.702 34.87 266.862 34.19C266.022 33.51 265.342 32.68 264.822 31.7C264.322 30.7 264.072 29.48 264.072 28.04C264.072 26.52 264.332 25.07 264.852 23.69C265.392 22.29 266.162 21.06 267.162 20C268.182 18.94 269.422 18.1 270.882 17.48C272.342 16.84 274.012 16.52 275.892 16.52C277.752 16.52 279.362 16.85 280.722 17.51C282.102 18.17 283.332 19.22 284.412 20.66L284.292 20.84ZM296.294 59L299.834 29.48H299.954C300.114 29.48 300.214 29.53 300.254 29.63C300.294 29.71 300.314 29.8 300.314 29.9L299.024 41.36C299.804 39.5 300.684 37.82 301.664 36.32C302.644 34.82 303.694 33.54 304.814 32.48C305.934 31.42 307.104 30.61 308.324 30.05C309.544 29.47 310.794 29.18 312.074 29.18C313.354 29.18 314.364 29.43 315.104 29.93C315.864 30.41 316.414 31.12 316.754 32.06C317.094 33 317.254 34.15 317.234 35.51C317.234 36.87 317.134 38.42 316.934 40.16C317.694 38.32 318.574 36.71 319.574 35.33C320.594 33.95 321.664 32.81 322.784 31.91C323.904 30.99 325.054 30.31 326.234 29.87C327.414 29.41 328.554 29.18 329.654 29.18C330.934 29.18 331.964 29.43 332.744 29.93C333.544 30.41 334.134 31.12 334.514 32.06C334.894 33 335.094 34.15 335.114 35.51C335.154 36.87 335.074 38.42 334.874 40.16L332.654 59H331.994L334.214 40.16C334.414 38.52 334.504 37.06 334.484 35.78C334.464 34.5 334.284 33.42 333.944 32.54C333.624 31.64 333.104 30.96 332.384 30.5C331.684 30.02 330.754 29.78 329.594 29.78C328.514 29.78 327.394 30.01 326.234 30.47C325.094 30.93 323.964 31.64 322.844 32.6C321.744 33.54 320.674 34.75 319.634 36.23C318.614 37.71 317.684 39.47 316.844 41.51L314.774 59H314.114L316.334 40.16C316.534 38.52 316.644 37.06 316.664 35.78C316.684 34.5 316.544 33.42 316.244 32.54C315.944 31.64 315.454 30.96 314.774 30.5C314.114 30.02 313.194 29.78 312.014 29.78C309.414 29.78 307.014 30.9 304.814 33.14C302.634 35.38 300.654 38.61 298.874 42.83L296.954 59H296.294ZM354.549 29.6L350.949 59H350.289L353.889 29.6H354.549ZM356.889 18.68C356.889 19.1 356.729 19.48 356.409 19.82C356.089 20.14 355.729 20.3 355.329 20.3C354.909 20.3 354.539 20.14 354.219 19.82C353.919 19.48 353.769 19.1 353.769 18.68C353.769 18.22 353.919 17.83 354.219 17.51C354.539 17.17 354.909 17 355.329 17C355.729 17 356.089 17.17 356.409 17.51C356.729 17.83 356.889 18.22 356.889 18.68ZM370.856 54.62C370.856 54.52 370.856 54.38 370.856 54.2C370.876 54 370.896 53.73 370.916 53.39C370.956 53.03 371.006 52.58 371.066 52.04C371.146 51.48 371.236 50.78 371.336 49.94L373.586 31.46H369.116C368.876 31.46 368.756 31.36 368.756 31.16L368.816 30.98L373.646 30.86L375.296 19.04C375.316 18.94 375.356 18.85 375.416 18.77C375.476 18.67 375.556 18.62 375.656 18.62H375.836L374.336 30.86H383.516L383.456 31.46H374.246L371.996 50C371.896 50.82 371.806 51.5 371.726 52.04C371.666 52.58 371.616 53.03 371.576 53.39C371.556 53.75 371.536 54.03 371.516 54.23C371.516 54.41 371.516 54.54 371.516 54.62C371.516 55.38 371.606 56.03 371.786 56.57C371.986 57.11 372.256 57.55 372.596 57.89C372.936 58.23 373.336 58.48 373.796 58.64C374.256 58.8 374.756 58.88 375.296 58.88C376.076 58.88 376.766 58.75 377.366 58.49C377.986 58.23 378.516 57.95 378.956 57.65C379.416 57.35 379.786 57.07 380.066 56.81C380.346 56.55 380.536 56.42 380.636 56.42C380.756 56.42 380.836 56.46 380.876 56.54L380.936 56.66C380.276 57.48 379.426 58.16 378.386 58.7C377.346 59.22 376.296 59.48 375.236 59.48C373.856 59.48 372.776 59.1 371.996 58.34C371.236 57.58 370.856 56.34 370.856 54.62ZM398.702 41.03C399.502 39.23 400.422 37.6 401.462 36.14C402.502 34.68 403.602 33.44 404.762 32.42C405.942 31.38 407.162 30.58 408.422 30.02C409.682 29.46 410.942 29.18 412.202 29.18C413.482 29.18 414.562 29.43 415.442 29.93C416.322 30.41 417.002 31.12 417.482 32.06C417.962 33 418.262 34.15 418.382 35.51C418.502 36.87 418.462 38.42 418.262 40.16L416.042 59H415.382L417.602 40.16C417.802 38.52 417.842 37.06 417.722 35.78C417.622 34.5 417.352 33.42 416.912 32.54C416.472 31.64 415.852 30.96 415.052 30.5C414.272 30.02 413.302 29.78 412.142 29.78C410.922 29.78 409.692 30.08 408.452 30.68C407.212 31.26 406.002 32.11 404.822 33.23C403.642 34.33 402.512 35.67 401.432 37.25C400.372 38.83 399.402 40.6 398.522 42.56L396.542 59H395.882L401.102 15.8H401.762L398.702 41.03Z" transform="translate(-0.00012207 155.623)" fill="white"/>
<defs>
<filter id="filter0_d" x="95.6494" y="62.3027" width="183.171" height="233.273" filterUnits="userSpaceOnUse" color-interpolation-filters="sRGB">
<feFlood flood-opacity="0" result="BackgroundImageFix"/>
<feColorMatrix in="SourceAlpha" type="matrix" values="0 0 0 0 0 0 0 0 0 0 0 0 0 0 0 0 0 0 255 0"/>
<feOffset dx="6" dy="6"/>
<feGaussianBlur stdDeviation="6.5"/>
<feColorMatrix type="matrix" values="0 0 0 0 0 0 0 0 0 0 0 0 0 0 0 0 0 0 0.94 0"/>
<feBlend mode="normal" in2="BackgroundImageFix" result="effect1_dropShadow"/>
<feBlend mode="normal" in="SourceGraphic" in2="effect1_dropShadow" result="shape"/>
</filter>
</defs>
</svg>
