<svg width="72" height="68" viewBox="0 0 72 68" fill="none" xmlns="http://www.w3.org/2000/svg">
<path d="M46.1887 0H0L4.07547 46.1887L23.0943 51.6226L42.1132 46.1887L46.1887 0Z" transform="translate(25.8113 16.1322)" fill="#0277BD"/>
<path d="M0 0V43.3337L15.214 38.9876L18.6103 0H0Z" transform="translate(48.9058 20.2078)" fill="#039BE5"/>
<path d="M12.3644 0H0V5.43396H6.65448L6.25118 10.8679H0V16.3019H5.97524L5.57193 22.4151L0 24.3149V30.0248L10.73 26.4906L11.6851 10.8679L12.3644 0Z" transform="translate(48.9058 27)" fill="white"/>
<path d="M12.4971 0V5.43396H0.40861L0 0H12.4971ZM6.24587 10.8679L6.52182 16.3019H12.4971V10.8679H6.24587ZM6.79245 19.0189H1.35849L1.7671 26.4906L12.4971 30.0248V24.3149L6.92512 22.4151L6.79245 19.0189Z" transform="translate(36.4086 27)" fill="#EEEEEE"/>
<path d="M37.5283 0H0L3.31132 37.5283L18.7642 41.9434L34.217 37.5283L37.5283 0Z" fill="#E65100"/>
<path d="M0 0V35.2087L12.3614 31.6774L15.1208 0H0Z" transform="translate(18.7641 3.3114)" fill="#FF6D00"/>
<path d="M0 13.2453V8.83019H9.49418L8.71809 21.5236L0 24.3951V19.7558L4.5272 18.2123L4.85488 13.2453H0ZM9.82186 4.41509L10.1539 0H0V4.41509H9.82186Z" transform="translate(18.7641 8.83008)" fill="white"/>
<path d="M10.0461 19.7558V24.3951L1.32798 21.5236L0.88388 15.4528H5.29897L5.51887 18.2123L10.0461 19.7558ZM4.6393 4.41509H10.0461V0H0L0.776091 13.2453H10.0461V8.83019H4.96698L4.6393 4.41509Z" transform="translate(8.71802 8.83008)" fill="#EEEEEE"/>
</svg>
