<svg width="72" height="72" viewBox="0 0 72 72" fill="none" xmlns="http://www.w3.org/2000/svg">
<rect width="53.1429" height="41.1429" transform="translate(15.4286 25.7144)" fill="black"/>
<path d="M67.433 0H4.57366C2.04911 0 0 2.04911 0 4.57366V67.4263C0 69.9509 2.04911 72 4.57366 72H67.4263C69.9509 72 72 69.9509 72 67.433V4.57366C72 2.04911 69.9509 0 67.433 0ZM39.4286 55.1719C39.4286 62.0223 35.4107 65.1429 29.5446 65.1429C24.2411 65.1429 20.4174 61.5871 18.8571 58.2857L24.2478 55.0246C25.2857 56.8661 26.8661 58.2857 29.1429 58.2857C31.3192 58.2857 32.5714 57.4353 32.5714 54.1272V32.5714H39.4286V55.1719ZM54.3013 65.1429C48.2277 65.1429 44.779 62.0826 42.8571 58.2857L48 54.8571C49.3996 57.1473 50.9263 59.3371 54.154 59.3371C56.8661 59.3371 58.2857 57.9844 58.2857 56.1094C58.2857 53.8728 56.8125 53.0759 53.8326 51.7701L52.1987 51.067C47.4777 49.058 44.3371 46.5402 44.3371 41.2098C44.3371 36.308 48.0804 32.5714 53.9196 32.5714C58.0781 32.5714 61.0647 34.0179 63.221 37.808L58.1317 41.0826C57.0067 39.067 55.8013 38.2768 53.9196 38.2768C52.0045 38.2768 50.7924 39.4955 50.7924 41.0826C50.7924 43.0446 52.0045 43.8348 54.8103 45.0536L56.4442 45.7567C62.0089 48.1339 65.1429 50.5647 65.1429 56.029C65.1429 61.9152 60.5156 65.1429 54.3013 65.1429Z" fill="#F7DF1E"/>
</svg>
