<svg width="72" height="69" viewBox="0 0 72 69" fill="none" xmlns="http://www.w3.org/2000/svg">
<path d="M49.8884 15.9424C52.5455 15.6675 54.5612 13.377 54.4695 10.6283C54.3779 7.87958 52.0873 5.68063 49.3387 5.68063H49.1554C46.3151 5.77225 44.1161 8.15445 44.2078 10.9948C44.2994 12.3691 44.8491 13.5602 45.6737 14.3848C42.5586 20.5236 37.7942 25.0131 30.6476 28.7696C25.7915 31.3351 20.7523 32.2513 15.713 31.6099C11.59 31.0602 8.38316 29.2277 6.36746 26.2042C3.43552 21.7147 3.16065 16.8586 5.63447 12.0026C7.37531 8.52094 10.124 5.9555 11.8648 4.67277C11.4983 3.48167 10.9486 1.46597 10.6737 0C-2.6116 9.62042 -1.23726 22.6309 2.79416 28.7696C5.81772 33.3508 11.9565 36.1911 18.7366 36.1911C20.569 36.1911 22.4015 36.0079 24.2339 35.5497C35.9617 33.2592 44.8491 26.2958 49.8884 15.9424Z" transform="translate(0 31.7931)" fill="#764ABC"/>
<path d="M40.042 15.3927C33.0787 7.23822 22.8169 2.74869 11.0891 2.74869H9.62318C8.79857 1.09948 7.05773 0 5.13365 0H4.95041C2.11009 0.091623 -0.088861 2.47382 0.00276203 5.31414C0.0943851 8.06283 2.38496 10.2618 5.13365 10.2618H5.3169C7.3326 10.1702 9.07344 8.88743 9.80643 7.1466H11.4556C18.419 7.1466 25.0159 9.1623 30.9713 13.1021C35.5525 16.1257 38.8509 20.0654 40.6834 24.8298C42.241 28.678 42.1494 32.4346 40.5001 35.6414C37.9347 40.4974 33.6284 43.1544 27.9478 43.1544C24.2829 43.1544 20.8012 42.055 18.9687 41.2304C17.9609 42.1466 16.1284 43.6126 14.8457 44.5288C18.7855 46.3613 22.8169 47.3691 26.6651 47.3691C35.4609 47.3691 41.9661 42.5131 44.4399 37.6571C47.097 32.3429 46.9137 23.1806 40.042 15.3927Z" transform="translate(25.972 20.9817)" fill="#764ABC"/>
<path d="M5.08769 49.2932C5.17932 52.0419 7.46989 54.2408 10.2186 54.2408H10.4018C13.2421 54.1492 15.4411 51.767 15.3495 48.9267C15.2578 46.178 12.9673 43.9791 10.2186 43.9791H10.0353C9.85209 43.9791 9.57722 43.9791 9.39397 44.0707C5.63743 37.8403 4.07984 31.0602 4.62958 23.7304C4.99607 18.233 6.82853 13.4686 10.0353 9.5288C12.6924 6.13874 17.8233 4.48953 21.305 4.39791C31.017 4.21466 35.14 16.3089 35.4149 21.1649C36.606 21.4398 38.6217 22.0812 39.9961 22.5393C38.8966 7.69634 29.7343 0 20.9385 0C12.6924 0 5.08769 5.95549 2.06413 14.7513C-2.15053 26.4791 0.598162 37.7487 5.72905 46.6361C5.27094 47.2775 4.99607 48.2853 5.08769 49.2932Z" transform="translate(14.3819)" fill="#764ABC"/>
</svg>
